<?xml version="1.0" encoding="utf-8"?>
<!-- Generator: Adobe Illustrator 21.1.0, SVG Export Plug-In . SVG Version: 6.00 Build 0)  -->
<svg version="1.0" id="Layer_1" xmlns="http://www.w3.org/2000/svg" xmlns:xlink="http://www.w3.org/1999/xlink" x="0px" y="0px"
	 viewBox="0 0 125 50" style="enable-background:new 0 0 125 50;" xml:space="preserve">
<style type="text/css">
	.st0{fill:#BDBDBD;}
</style>
<g>
	<path class="st0" d="M13.3,30.9c0-0.5-0.3-0.9-0.8-1.2c-0.5-0.3-1.6-0.6-3.1-1c-1.5-0.3-2.8-0.8-3.8-1.3c-1-0.5-1.7-1.2-2.3-2
		c-0.5-0.8-0.8-1.7-0.8-2.7c0-1.8,0.7-3.3,2.2-4.4c1.5-1.2,3.4-1.7,5.8-1.7c2.6,0,4.6,0.6,6.2,1.8c1.6,1.2,2.3,2.7,2.3,4.6h-6.1
		c0-1.6-0.8-2.3-2.5-2.3C10,20.5,9.5,20.7,9,21c-0.4,0.4-0.7,0.8-0.7,1.3c0,0.5,0.3,1,0.8,1.3c0.5,0.3,1.4,0.6,2.5,0.8
		c1.2,0.2,2.2,0.5,3.1,0.8c2.9,1,4.4,2.8,4.4,5.4c0,1.8-0.8,3.2-2.4,4.4c-1.6,1.1-3.6,1.7-6.2,1.7c-1.7,0-3.2-0.3-4.5-0.9
		c-1.3-0.6-2.3-1.4-3.1-2.5c-0.7-1-1.1-2.1-1.1-3.3h5.7c0,0.9,0.3,1.6,0.9,2c0.6,0.4,1.3,0.6,2.2,0.6c0.8,0,1.5-0.2,1.9-0.5
		C13.1,31.9,13.3,31.5,13.3,30.9z"/>
	<path class="st0" d="M28.2,12v4.9h3.2v4.2h-3.2V30c0,0.7,0.1,1.2,0.4,1.5c0.3,0.3,0.8,0.4,1.6,0.4c0.6,0,1.1,0,1.5-0.1v4.4
		c-1.1,0.3-2.2,0.5-3.4,0.5c-2.1,0-3.6-0.5-4.6-1.5c-1-1-1.5-2.5-1.5-4.5v-9.7h-2.5v-4.2h2.5V12H28.2z"/>
	<path class="st0" d="M31.6,26.5c0-2,0.4-3.7,1.1-5.2c0.8-1.5,1.8-2.7,3.3-3.5c1.4-0.8,3.1-1.2,5-1.2c2.9,0,5.2,0.9,6.9,2.7
		c1.7,1.8,2.5,4.3,2.5,7.4v0.2c0,3-0.8,5.5-2.5,7.3c-1.7,1.8-4,2.7-6.9,2.7c-2.8,0-5-0.8-6.7-2.5c-1.7-1.7-2.6-3.9-2.7-6.8
		L31.6,26.5z M37.7,26.8c0,1.8,0.3,3.1,0.8,4c0.6,0.8,1.4,1.3,2.5,1.3c2.2,0,3.3-1.7,3.3-5v-0.6c0-3.5-1.1-5.3-3.4-5.3
		c-2,0-3.1,1.5-3.3,4.5L37.7,26.8z"/>
	<path class="st0" d="M63.5,22.4l-2-0.1c-1.9,0-3.1,0.6-3.7,1.8v12.4h-6.1V16.9h5.7l0.2,2.5c1-1.9,2.5-2.9,4.3-2.9
		c0.7,0,1.2,0.1,1.7,0.2L63.5,22.4z"/>
	<path class="st0" d="M64.2,26.5c0-2,0.4-3.7,1.1-5.2c0.8-1.5,1.8-2.7,3.3-3.5c1.4-0.8,3.1-1.2,5-1.2c2.9,0,5.2,0.9,6.9,2.7
		c1.7,1.8,2.5,4.3,2.5,7.4v0.2c0,3-0.8,5.5-2.5,7.3c-1.7,1.8-4,2.7-6.9,2.7c-2.8,0-5-0.8-6.7-2.5s-2.6-3.9-2.7-6.8L64.2,26.5z
		 M70.3,26.8c0,1.8,0.3,3.1,0.8,4s1.4,1.3,2.5,1.3c2.2,0,3.3-1.7,3.3-5v-0.6c0-3.5-1.1-5.3-3.4-5.3c-2,0-3.1,1.5-3.3,4.5L70.3,26.8z
		"/>
	<path class="st0" d="M103,25.7c0,3.6-0.8,6.3-2.4,8.2c-1.6,1.9-3.8,2.9-6.7,2.9c-2.9,0-5.2-1-6.8-2.9c-1.6-1.9-2.4-4.7-2.4-8.2
		v-4.8c0-3.6,0.8-6.3,2.4-8.2c1.6-1.9,3.9-2.9,6.8-2.9s5.2,1,6.8,2.9c1.6,1.9,2.4,4.7,2.4,8.2V25.7z M96.9,20.1
		c0-1.9-0.2-3.3-0.7-4.2c-0.5-0.9-1.3-1.4-2.3-1.4c-1,0-1.8,0.4-2.3,1.3c-0.5,0.9-0.7,2.2-0.8,3.9v6.7c0,2,0.2,3.4,0.7,4.3
		s1.3,1.4,2.3,1.4c1,0,1.8-0.4,2.3-1.3c0.5-0.9,0.7-2.3,0.8-4.2V20.1z"/>
	<path class="st0" d="M122.1,17.1c0,1.3-0.3,2.4-0.9,3.4c-0.6,1-1.5,1.8-2.6,2.3c1.3,0.6,2.2,1.5,3,2.5c0.7,1.1,1.1,2.3,1.1,3.8
		c0,2.3-0.8,4.2-2.4,5.6c-1.6,1.4-3.9,2-6.7,2c-2.9,0-5.1-0.7-6.8-2.1c-1.6-1.4-2.5-3.2-2.5-5.6c0-1.4,0.4-2.7,1.1-3.7
		s1.7-1.9,3.1-2.6c-1.1-0.6-2-1.4-2.6-2.3s-1-2.1-1-3.4c0-2.3,0.8-4.1,2.3-5.4c1.6-1.3,3.6-2,6.3-2c2.7,0,4.8,0.7,6.3,2
		C121.3,13,122.1,14.8,122.1,17.1z M116.5,28.7c0-1.1-0.3-1.9-0.8-2.5c-0.6-0.6-1.3-0.9-2.2-0.9c-0.9,0-1.7,0.3-2.2,0.9
		c-0.6,0.6-0.8,1.4-0.8,2.5c0,1,0.3,1.9,0.9,2.5c0.6,0.6,1.3,0.9,2.3,0.9c0.9,0,1.6-0.3,2.2-0.9S116.5,29.7,116.5,28.7z M113.4,14.4
		c-0.8,0-1.4,0.3-1.9,0.8c-0.4,0.5-0.6,1.3-0.6,2.2c0,0.9,0.2,1.7,0.7,2.3s1.1,0.9,1.9,0.9c0.8,0,1.5-0.3,1.9-0.9
		c0.4-0.6,0.6-1.3,0.6-2.3s-0.2-1.7-0.6-2.2C114.9,14.7,114.3,14.4,113.4,14.4z"/>
</g>
<rect x="2" y="40" class="st0" width="120" height="3"/>
<rect x="2" y="9.8" class="st0" width="92" height="3"/>
</svg>
